<?xml version="1.0" encoding="UTF-8" standalone="no"?>
<!-- Created with Inkscape (http://www.inkscape.org/) -->

<svg
   xmlns:dc="http://purl.org/dc/elements/1.1/"
   xmlns:cc="http://creativecommons.org/ns#"
   xmlns:rdf="http://www.w3.org/1999/02/22-rdf-syntax-ns#"
   xmlns:svg="http://www.w3.org/2000/svg"
   xmlns="http://www.w3.org/2000/svg"
   xmlns:sodipodi="http://sodipodi.sourceforge.net/DTD/sodipodi-0.dtd"
   xmlns:inkscape="http://www.inkscape.org/namespaces/inkscape"
   width="68.276726"
   height="68.276726"
   id="svg2"
   version="1.1"
   inkscape:version="0.91 r13725"
   sodipodi:docname="numbas-icon.svg"
   inkscape:export-filename="/data/ncp34/numbas/logo/numbas-icon.png"
   inkscape:export-xdpi="90"
   inkscape:export-ydpi="90">
  <defs
     id="defs4" />
  <sodipodi:namedview
     id="base"
     pagecolor="#ffffff"
     bordercolor="#666666"
     borderopacity="1.0"
     inkscape:pageopacity="0.0"
     inkscape:pageshadow="2"
     inkscape:zoom="3.2809755"
     inkscape:cx="94.210441"
     inkscape:cy="-10.949376"
     inkscape:document-units="px"
     inkscape:current-layer="text2985"
     showgrid="false"
     inkscape:window-width="1920"
     inkscape:window-height="1020"
     inkscape:window-x="0"
     inkscape:window-y="31"
     inkscape:window-maximized="1"
     fit-margin-top="0"
     fit-margin-left="0"
     fit-margin-right="0"
     fit-margin-bottom="0" />
  <metadata
     id="metadata7">
    <rdf:RDF>
      <cc:Work
         rdf:about="">
        <dc:format>image/svg+xml</dc:format>
        <dc:type
           rdf:resource="http://purl.org/dc/dcmitype/StillImage" />
        <dc:title></dc:title>
      </cc:Work>
    </rdf:RDF>
  </metadata>
  <g
     inkscape:label="Layer 1"
     inkscape:groupmode="layer"
     id="layer1"
     transform="translate(11.303408,-994.61264)">
    <g
       style="font-style:normal;font-weight:normal;font-size:40px;line-height:125%;font-family:Sans;letter-spacing:0px;word-spacing:0px;fill:#34444f;fill-opacity:1;stroke:none"
       id="text2985"
       transform="matrix(0.89845863,0,0,0.89845863,0,106.85831)">
      <circle
         style="fill:#34444f;fill-opacity:1;stroke:none;stroke-width:0.99921262;stroke-miterlimit:4;stroke-dasharray:none;stroke-opacity:1"
         id="path4159"
         cx="25.415701"
         cy="1026.0825"
         r="37.99659" />
      <path
         d="m 5.0759622,1051.4982 7.1279078,0 0,-32.9756 c -0.02101,-1.569 -0.105013,-3.1649 -0.251997,-4.7879 -0.147013,-1.623 -0.231011,-2.499 -0.251996,-2.628 l 0.143998,0 c 0.05999,0.1335 0.53398,1.0185 1.421983,2.655 0.887972,1.6365 1.829959,3.2234 2.825962,4.7609 l 22.679708,32.9756 6.98391,0 0,-50.8314 -7.127908,0 0,33.0476 c 0.02096,1.5345 0.104958,3.1095 0.251996,4.7249 0.146956,1.6155 0.230955,2.4885 0.251998,2.619 l -0.143999,0 c -0.06004,-0.135 -0.534032,-1.017 -1.421981,-2.646 -0.888028,-1.6289 -1.830015,-3.1949 -2.825964,-4.6979 l -22.607709,-33.0476 -7.0559088,0 z"
         style="font-size:72px;font-family:'Museo Sans 500';-inkscape-font-specification:'Museo Sans 500';fill:#ffffff;fill-opacity:1"
         id="path3758"
         inkscape:connector-curvature="0" />
    </g>
  </g>
</svg>
