<?xml version="1.0" encoding="UTF-8" standalone="no"?>
<!-- Created with Inkscape (http://www.inkscape.org/) -->

<svg
   xmlns:dc="http://purl.org/dc/elements/1.1/"
   xmlns:cc="http://creativecommons.org/ns#"
   xmlns:rdf="http://www.w3.org/1999/02/22-rdf-syntax-ns#"
   xmlns:svg="http://www.w3.org/2000/svg"
   xmlns="http://www.w3.org/2000/svg"
   xmlns:sodipodi="http://sodipodi.sourceforge.net/DTD/sodipodi-0.dtd"
   xmlns:inkscape="http://www.inkscape.org/namespaces/inkscape"
   width="48"
   height="48"
   id="svg2"
   version="1.1"
   inkscape:version="0.92.2 (5c3e80d, 2017-08-06)"
   sodipodi:docname="numbas-square.svg"
   inkscape:export-filename="/home/christian/numbas/logo/numbas-square.png"
   inkscape:export-xdpi="1024"
   inkscape:export-ydpi="1024">
  <defs
     id="defs4" />
  <sodipodi:namedview
     id="base"
     pagecolor="#ffffff"
     bordercolor="#666666"
     borderopacity="1.0"
     inkscape:pageopacity="0.0"
     inkscape:pageshadow="2"
     inkscape:zoom="2.32"
     inkscape:cx="30.13217"
     inkscape:cy="3.2684882"
     inkscape:document-units="px"
     inkscape:current-layer="text2985"
     showgrid="false"
     inkscape:window-width="1853"
     inkscape:window-height="1016"
     inkscape:window-x="67"
     inkscape:window-y="27"
     inkscape:window-maximized="1" />
  <metadata
     id="metadata7">
    <rdf:RDF>
      <cc:Work
         rdf:about="">
        <dc:format>image/svg+xml</dc:format>
        <dc:type
           rdf:resource="http://purl.org/dc/dcmitype/StillImage" />
        <dc:title></dc:title>
      </cc:Work>
    </rdf:RDF>
  </metadata>
  <g
     inkscape:label="Layer 1"
     inkscape:groupmode="layer"
     id="layer1"
     transform="translate(0,-1004.3622)">
    <g
       style="font-style:normal;font-weight:normal;font-size:40px;line-height:125%;font-family:Sans;letter-spacing:0px;word-spacing:0px;fill:#34444f;fill-opacity:1;stroke:none"
       id="text2985"
       transform="matrix(0.89845863,0,0,0.89845863,0,106.85831)">
      <path
         d="m 6.3726772,1051.0655 h 7.1279078 v -32.9756 c -0.02101,-1.569 -0.105013,-3.1649 -0.251997,-4.7879 -0.147013,-1.623 -0.231011,-2.499 -0.251996,-2.628 h 0.143998 c 0.05999,0.1335 0.53398,1.0185 1.421983,2.655 0.887972,1.6365 1.829959,3.2234 2.825962,4.7609 l 22.679708,32.9756 h 6.98391 v -50.8314 h -7.127908 v 33.0476 c 0.02096,1.5345 0.104958,3.1095 0.251996,4.7249 0.146956,1.6155 0.230955,2.4885 0.251998,2.619 H 40.28424 c -0.06004,-0.135 -0.534032,-1.017 -1.421981,-2.646 -0.888028,-1.6289 -1.830015,-3.1949 -2.825964,-4.6979 L 13.428586,1000.2341 H 6.3726772 Z"
         style="font-size:72px;font-family:'Museo Sans 500';-inkscape-font-specification:'Museo Sans 500';fill:#34444f;fill-opacity:1"
         id="path3758"
         inkscape:connector-curvature="0" />
    </g>
  </g>
</svg>
