<?xml version="1.0" encoding="UTF-8" standalone="no"?>
<!-- Created with Inkscape (http://www.inkscape.org/) -->

<svg
   xmlns:dc="http://purl.org/dc/elements/1.1/"
   xmlns:cc="http://creativecommons.org/ns#"
   xmlns:rdf="http://www.w3.org/1999/02/22-rdf-syntax-ns#"
   xmlns:svg="http://www.w3.org/2000/svg"
   xmlns="http://www.w3.org/2000/svg"
   xmlns:sodipodi="http://sodipodi.sourceforge.net/DTD/sodipodi-0.dtd"
   xmlns:inkscape="http://www.inkscape.org/namespaces/inkscape"
   width="354.33069"
   height="141.73228"
   id="svg2"
   version="1.1"
   inkscape:version="0.48.4 r9939"
   sodipodi:docname="sticker.svg"
   inkscape:export-filename="D:\numbas\logo\sticker.png"
   inkscape:export-xdpi="276.92001"
   inkscape:export-ydpi="276.92001">
  <defs
     id="defs4" />
  <sodipodi:namedview
     id="base"
     pagecolor="#ffffff"
     bordercolor="#666666"
     borderopacity="1.0"
     inkscape:pageopacity="0.0"
     inkscape:pageshadow="2"
     inkscape:zoom="2.043289"
     inkscape:cx="223.60096"
     inkscape:cy="-3.4133403"
     inkscape:document-units="px"
     inkscape:current-layer="text3025-6-2"
     showgrid="false"
     inkscape:window-width="1920"
     inkscape:window-height="1137"
     inkscape:window-x="-8"
     inkscape:window-y="-8"
     inkscape:window-maximized="1"
     units="cm" />
  <metadata
     id="metadata7">
    <rdf:RDF>
      <cc:Work
         rdf:about="">
        <dc:format>image/svg+xml</dc:format>
        <dc:type
           rdf:resource="http://purl.org/dc/dcmitype/StillImage" />
        <dc:title />
      </cc:Work>
    </rdf:RDF>
  </metadata>
  <g
     inkscape:label="Layer 1"
     inkscape:groupmode="layer"
     id="layer1"
     transform="translate(0,-910.62991)">
    <rect
       style="fill:#34444f;fill-opacity:1;stroke:none"
       id="rect3882"
       width="354.33072"
       height="141.73228"
       x="-1.5258789e-005"
       y="910.62988"
       ry="8.5545807" />
    <g
       style="font-size:40px;font-style:normal;font-weight:normal;line-height:125%;letter-spacing:0px;word-spacing:0px;fill:#ffffff;fill-opacity:1;stroke:none;font-family:Sans"
       id="text2985-5"
       transform="matrix(1.108897,0,0,1.108897,16.716528,-180.32369)">
      <path
         d="m 0,1051.4982 7.1279082,0 0,-32.9756 c -0.021014,-1.569 -0.1050131,-3.1649 -0.2519978,-4.7879 -0.1470123,-1.623 -0.2310108,-2.499 -0.2519957,-2.628 l 0.1439982,0 c 0.059986,0.1335 0.5339799,1.0185 1.4219827,2.655 0.8879726,1.6365 1.8299594,3.2234 2.8259624,4.7609 l 22.679708,32.9756 6.98391,0 0,-50.8314 -7.127908,0 0,33.0476 c 0.02096,1.5345 0.104958,3.1095 0.251996,4.7249 0.146956,1.6155 0.230955,2.4885 0.251998,2.619 l -0.143999,0 c -0.06004,-0.135 -0.534032,-1.017 -1.421981,-2.646 -0.888028,-1.6289 -1.830015,-3.1949 -2.825964,-4.6979 L 7.0559092,1000.6668 0,1000.6668 z"
         style="font-size:72px;fill:#ffffff;fill-opacity:1;stroke:none;font-family:Museo Sans 500;-inkscape-font-specification:Museo Sans 500"
         id="path3758-1"
         inkscape:connector-curvature="0" />
      <path
         d="m 53.842509,1033.4984 c 0.09149,5.7314 1.942467,10.2884 5.552929,13.6708 3.610439,3.3825 8.431372,5.1135 14.462814,5.193 6.03139,-0.08 10.852323,-1.8105 14.462813,-5.193 3.610408,-3.3824 5.461383,-7.9394 5.552929,-13.6708 l 0,-32.8316 -7.127908,0 0,32.6876 c -0.04954,3.984 -1.228524,7.0499 -3.536956,9.1979 -2.308504,2.148 -5.44946,3.2339 -9.422878,3.2579 -3.935971,-0.027 -7.043928,-1.1069 -9.323881,-3.2399 -2.279985,-2.133 -3.443969,-5.1569 -3.491954,-9.0719 l 0,-32.8316 -7.127908,0 z"
         style="font-size:72px;fill:#ffffff;fill-opacity:1;stroke:none;font-family:Museo Sans 500;-inkscape-font-specification:Museo Sans 500"
         id="path3760-7"
         inkscape:connector-curvature="0" />
      <path
         d="m 105.43165,1051.4982 7.1279,0 2.44797,-32.0396 c 0.10049,-1.6725 0.15149,-3.3314 0.153,-4.977 10e-4,-1.6454 -0.002,-2.5304 -0.009,-2.6549 l 0.144,0 c 0.042,0.147 0.35398,1.077 0.93599,2.7899 0.58197,1.7131 1.18196,3.327 1.79997,4.842 l 10.07987,22.8957 6.33592,0 10.15187,-22.8957 c 0.64945,-1.5405 1.25844,-3.1394 1.82698,-4.797 0.56844,-1.6574 0.87144,-2.5544 0.90899,-2.6909 l 0.14399,0 c -0.0105,0.1185 -0.0255,0.9795 -0.045,2.5829 -0.0195,1.6036 0.0195,3.2385 0.117,4.905 l 2.51997,32.0396 7.05591,0 -4.10395,-50.8314 -7.4879,0 -11.66385,27.5037 c -0.60903,1.5135 -1.17302,3.0045 -1.69198,4.4729 -0.51903,1.4685 -0.79502,2.2575 -0.82799,2.367 l -0.144,0 c -0.033,-0.1095 -0.30902,-0.8985 -0.82799,-2.367 -0.51902,-1.4684 -1.08301,-2.9594 -1.69197,-4.4729 l -11.66385,-27.5037 -7.48791,0 z"
         style="font-size:72px;fill:#ffffff;fill-opacity:1;stroke:none;font-family:Museo Sans 500;-inkscape-font-specification:Museo Sans 500"
         id="path3762-1"
         inkscape:connector-curvature="0" />
      <path
         d="m 169.3125,1051.4982 18.21577,0 c 4.58691,0 8.42685,-1.2195 11.51985,-3.645 3.09292,-2.4254 4.7009,-6.0344 4.82394,-10.8268 -0.0151,-2.9025 -0.74104,-5.4675 -2.17798,-7.6949 -1.43702,-2.2275 -3.49499,-3.7665 -6.17392,-4.617 l 0,-0.144 c 1.96494,-1.0274 3.50692,-2.4824 4.62594,-4.3649 1.11895,-1.8825 1.68894,-4.0754 1.70998,-6.5789 -0.0795,-4.1309 -1.46852,-7.3169 -4.16694,-9.5579 -2.6985,-2.2409 -6.22945,-3.3749 -10.59287,-3.402 l -17.78377,0 z m 7.12791,-29.4477 0,-15.1918 10.51186,0 c 2.45994,0.033 4.34392,0.7231 5.65193,2.07 1.30795,1.347 1.96794,3.153 1.97997,5.4179 -0.024,2.2741 -0.69602,4.116 -2.01597,5.526 -1.32001,1.41 -3.14399,2.136 -5.47193,2.1779 z m 0,23.2557 0,-17.3517 11.37585,0 c 2.69694,0.039 4.82691,0.843 6.38992,2.4119 1.56295,1.569 2.36094,3.669 2.39397,6.3 -0.021,2.6279 -0.78902,4.7159 -2.30397,6.2639 -1.51501,1.548 -3.65098,2.34 -6.40792,2.3759 z"
         style="font-size:72px;fill:#ffffff;fill-opacity:1;stroke:none;font-family:Museo Sans 500;-inkscape-font-specification:Museo Sans 500"
         id="path3764-1"
         inkscape:connector-curvature="0" />
      <path
         d="m 245.32723,1051.4982 7.41591,0 -18.28777,-50.8314 -7.4879,0 -18.28776,50.8314 7.3439,0 5.03994,-14.6158 19.15175,0 z m -14.54381,-43.8475 c 0.027,0.1381 0.24298,1.0141 0.64799,2.628 0.40497,1.614 0.83697,3.138 1.29599,4.5719 l 5.61592,16.1278 -15.4078,0 5.68793,-16.1278 c 0.46197,-1.4339 0.90597,-2.9579 1.33198,-4.5719 0.42597,-1.6139 0.65397,-2.4899 0.68399,-2.628 z"
         style="font-size:72px;fill:#ffffff;fill-opacity:1;stroke:none;font-family:Museo Sans 500;-inkscape-font-specification:Museo Sans 500"
         id="path3766-5"
         inkscape:connector-curvature="0" />
      <path
         d="m 256.40893,1045.6662 c 0.008,0.083 0.66398,0.6614 1.96797,1.736 1.30397,1.0747 3.20795,2.1493 5.71192,3.224 2.50396,1.0746 5.55992,1.6533 9.16789,1.736 5.08191,-0.1065 9.02985,-1.5135 11.84384,-4.221 2.81393,-2.7074 4.24191,-6.0764 4.28395,-10.1069 -0.12828,-4.037 -1.41077,-7.1228 -3.84745,-9.2575 -2.43675,-2.1346 -5.25821,-3.8277 -8.46439,-5.0793 -3.20623,-1.2515 -6.02769,-2.5711 -8.46439,-3.9588 -2.43674,-1.3876 -3.71922,-3.353 -3.84745,-5.896 0.0465,-2.073 0.90747,-3.813 2.58296,-5.22 1.67547,-1.4069 3.88644,-2.1389 6.63292,-2.196 3.29993,0.1831 5.96989,0.9151 8.00989,2.196 2.03995,1.281 3.08993,2.013 3.14997,2.196 l 3.23995,-5.9039 c -0.0105,-0.213 -1.23151,-1.065 -3.66295,-2.556 -2.4315,-1.4909 -6.01045,-2.3429 -10.73686,-2.55597 -4.87345,0.096 -8.8064,1.47007 -11.79885,4.12197 -2.99247,2.652 -4.53145,6.0059 -4.61694,10.0619 0.12824,3.8242 1.41073,6.7686 3.84745,8.8333 2.43671,2.0648 5.25817,3.7403 8.46439,5.0265 3.20619,1.2862 6.02765,2.6737 8.46439,4.1624 2.43669,1.4888 3.71918,3.5692 3.84745,6.2414 -0.069,2.4225 -0.93901,4.2735 -2.60996,5.553 -1.67101,1.2795 -3.72898,1.9244 -6.17392,1.9349 -3.84747,-0.2279 -6.95243,-1.1399 -9.31489,-2.7359 -2.36247,-1.596 -3.57746,-2.508 -3.64495,-2.736 z"
         style="font-size:72px;fill:#ffffff;fill-opacity:1;stroke:none;font-family:Museo Sans 500;-inkscape-font-specification:Museo Sans 500"
         id="path3768-2"
         inkscape:connector-curvature="0" />
    </g>
    <g
       style="font-size:19.74533653px;font-style:normal;font-variant:normal;font-weight:normal;font-stretch:normal;line-height:125%;letter-spacing:0px;word-spacing:0px;fill:#ffffff;fill-opacity:1;stroke:none;font-family:Museo Sans 500;-inkscape-font-specification:Museo Sans 500"
       id="text3025-4-4">
      <path
         d="m 16.716526,1005.6629 1.915273,0 0.720753,-4.0872 c 0.05288,-0.3069 0.123832,-0.6113 0.212869,-0.9132 0.08903,-0.302 0.202669,-0.5965 0.340925,-0.88363 0.370507,-0.74578 0.84325,-1.3225 1.41823,-1.73016 0.574968,-0.40765 1.17494,-0.61415 1.799917,-0.61951 0.15217,0.002 0.279594,0.0123 0.382274,0.0296 0.102664,0.0173 0.156045,0.0272 0.160143,0.0296 l 0.334262,-1.89553 c -0.0042,-0.002 -0.05327,-0.008 -0.147074,-0.0197 -0.09382,-0.0115 -0.20702,-0.0181 -0.339589,-0.0198 -0.780105,0.0173 -1.486782,0.26904 -2.120032,0.75525 -0.633262,0.48623 -1.132859,1.10326 -1.498792,1.8511 l -0.03949,0 c 0.0026,-0.005 0.02208,-0.0786 0.05848,-0.21966 0.03639,-0.14109 0.07417,-0.31797 0.113321,-0.53065 l 0.306408,-1.73757 -1.856038,0 z"
         style="font-style:italic"
         id="path4107" />
      <path
         d="m 24.310869,1000.6674 c -0.242677,1.5138 0.02777,2.7561 0.811332,3.7269 0.783561,0.9708 1.969442,1.4726 3.557647,1.5055 1.216945,-0.059 2.202377,-0.2961 2.956299,-0.7108 0.753904,-0.4146 1.142048,-0.6516 1.164434,-0.7108 l -0.542588,-1.4019 c -0.02461,0.049 -0.33775,0.2427 -0.939415,0.5825 -0.601681,0.3398 -1.344274,0.5339 -2.22778,0.5825 -0.914377,-5e-4 -1.648174,-0.2761 -2.201392,-0.8269 -0.553227,-0.5508 -0.770819,-1.3743 -0.652775,-2.4706 l 7.285935,0 c 0.0057,-0.019 0.03431,-0.1246 0.08576,-0.3184 0.05143,-0.1937 0.09134,-0.364 0.119711,-0.5109 0.230227,-1.32658 0.05703,-2.42984 -0.519603,-3.30974 -0.57665,-0.87988 -1.569769,-1.33648 -2.979359,-1.36981 -1.455503,0.0193 -2.727208,0.49405 -3.81512,1.42411 -1.08792,0.93009 -1.788949,2.19953 -2.10309,3.80834 z m 2.239176,-1.16496 c 0.296527,-0.82312 0.746469,-1.45249 1.349828,-1.88813 0.603349,-0.43561 1.277218,-0.65528 2.021609,-0.65899 0.658378,-0.001 1.17589,0.20857 1.552537,0.62938 0.376629,0.42082 0.512362,1.06007 0.407198,1.91774 z"
         style="font-style:italic"
         id="path4109" />
      <path
         d="m 34.7584,1002.8591 c -0.142057,0.9992 0.07591,1.7553 0.65391,2.2682 0.577995,0.513 1.313338,0.7705 2.206031,0.7725 0.795926,-0.024 1.456395,-0.195 1.981412,-0.5119 0.525004,-0.3169 0.917284,-0.6338 1.17684,-0.9507 0.259542,-0.3169 0.389089,-0.4875 0.388642,-0.5119 l 0.03949,0 c -0.0025,0 -0.02224,0.079 -0.05935,0.2246 -0.03713,0.1452 -0.07694,0.3336 -0.119414,0.5652 l -0.167131,0.9478 1.777057,0 1.114208,-6.31842 c 0.21712,-1.26862 0.04548,-2.23613 -0.514906,-2.90253 -0.560409,-0.66639 -1.475307,-1.00205 -2.744695,-1.007 -1.166265,0.0494 -2.109357,0.24682 -2.829278,0.59235 -0.719929,0.34555 -1.090414,0.543 -1.111456,0.59236 l 0.542588,1.4019 c 0.02685,-0.0403 0.326781,-0.20156 0.899791,-0.48376 0.573002,-0.28218 1.257961,-0.44343 2.054879,-0.48375 0.646135,-0.0111 1.141089,0.14933 1.484863,0.48128 0.343758,0.33197 0.450541,0.90211 0.32035,1.71042 l -0.03134,0.17771 -0.434392,0 c -0.599431,-0.0186 -1.377799,0.034 -2.335105,0.15796 -0.957317,0.12396 -1.853692,0.43108 -2.689128,0.92148 -0.835441,0.4903 -1.370063,1.2757 -1.603867,2.3562 z m 1.952427,-0.099 c 0.127153,-0.5891 0.446016,-1.0191 0.956589,-1.29 0.510566,-0.271 1.08361,-0.4421 1.719134,-0.5134 0.635512,-0.071 1.204272,-0.102 1.706282,-0.092 l 0.493627,0 -0.05571,0.316 c -0.147488,0.7803 -0.515439,1.4953 -1.103853,2.1448 -0.588428,0.6495 -1.295867,0.9942 -2.122319,1.0341 -0.619556,-0.016 -1.058518,-0.1814 -1.316886,-0.4961 -0.258376,-0.3147 -0.350663,-0.6824 -0.276863,-1.1032 z"
         style="font-style:italic"
         id="path4111" />
      <path
         d="m 45.848131,1002.9381 c -0.170052,1.2139 0.0041,1.9946 0.522382,2.3422 0.518302,0.3476 1.074474,0.5015 1.668519,0.4616 0.173467,-0 0.321892,-0.01 0.445278,-0.02 0.123377,-0.011 0.187886,-0.018 0.193528,-0.02 l 0.299444,-1.6981 c -0.003,8e-4 -0.03734,0 -0.102935,0.01 -0.0656,0.01 -0.144341,0.01 -0.236213,0.01 -0.306415,0.016 -0.542932,-0.07 -0.709551,-0.2592 -0.166627,-0.1888 -0.201956,-0.5763 -0.105987,-1.1625 l 1.918526,-10.87953 -1.915273,0 z"
         style="font-style:italic"
         id="path4113" />
      <path
         d="m 51.092985,1002.9381 c -0.170052,1.2139 0.0041,1.9946 0.522382,2.3422 0.518302,0.3476 1.074474,0.5015 1.668519,0.4616 0.173467,-0 0.321892,-0.01 0.445278,-0.02 0.123377,-0.011 0.187886,-0.018 0.193528,-0.02 l 0.299444,-1.6981 c -0.003,8e-4 -0.03734,0 -0.102935,0.01 -0.0656,0.01 -0.144341,0.01 -0.236214,0.01 -0.306414,0.016 -0.542931,-0.07 -0.70955,-0.2592 -0.166627,-0.1888 -0.201956,-0.5763 -0.105987,-1.1625 l 1.918526,-10.87953 -1.915273,0 z"
         style="font-style:italic"
         id="path4115" />
      <path
         d="m 53.950646,1009.1973 c 0.0058,0.025 0.169616,0.1275 0.491488,0.306 0.321873,0.1785 0.767069,0.2806 1.335591,0.3061 0.710288,-0 1.383821,-0.2008 2.0206,-0.5973 0.636773,-0.3966 1.180752,-0.9807 1.63194,-1.7524 l 6.758278,-11.78781 -2.073233,0 -3.584636,6.55541 c -0.14005,0.2739 -0.264343,0.5355 -0.372879,0.7848 -0.108548,0.2493 -0.165781,0.3826 -0.171702,0.3999 l -0.03949,0 c -1.04e-4,-0.018 -0.01387,-0.1547 -0.04129,-0.4097 -0.02743,-0.2551 -0.06792,-0.52 -0.121475,-0.7948 l -1.355117,-6.53561 -2.152214,0 2.445008,9.87251 -0.695578,1.1452 c -0.271681,0.4583 -0.58475,0.8154 -0.939206,1.0712 -0.354461,0.2559 -0.726213,0.3859 -1.115257,0.39 -0.313287,-0.017 -0.571772,-0.086 -0.775457,-0.2073 -0.203685,-0.121 -0.309146,-0.1901 -0.316383,-0.2074 z"
         style="font-style:italic"
         id="path4117" />
      <path
         d="m 73.501307,1005.6629 2.211449,0 5.454171,-9.99101 -2.013998,0 -3.619455,6.75281 c -0.152629,0.2987 -0.286305,0.5948 -0.401031,0.8885 -0.114736,0.2937 -0.179613,0.4517 -0.194631,0.4739 l -0.03949,0 c -0.0064,-0.022 -0.01225,-0.1802 -0.01763,-0.4739 -0.0054,-0.2937 -0.03132,-0.5898 -0.07779,-0.8885 l -1.237835,-6.75281 -2.033744,0 z"
         style="font-style:italic"
         id="path4119" />
      <path
         d="m 81.232975,1000.6674 c -0.242677,1.5138 0.02777,2.7561 0.811332,3.7269 0.78356,0.9708 1.969442,1.4726 3.557647,1.5055 1.216945,-0.059 2.202377,-0.2961 2.956299,-0.7108 0.753904,-0.4146 1.142048,-0.6516 1.164434,-0.7108 l -0.542589,-1.4019 c -0.02461,0.049 -0.33775,0.2427 -0.939414,0.5825 -0.601681,0.3398 -1.344274,0.5339 -2.22778,0.5825 -0.914377,-5e-4 -1.648174,-0.2761 -2.201393,-0.8269 -0.553227,-0.5508 -0.770818,-1.3743 -0.652774,-2.4706 l 7.285935,0 c 0.0057,-0.019 0.03431,-0.1246 0.08576,-0.3184 0.05143,-0.1937 0.09134,-0.364 0.119712,-0.5109 0.230227,-1.32658 0.05703,-2.42984 -0.519603,-3.30974 -0.57665,-0.87988 -1.569769,-1.33648 -2.97936,-1.36981 -1.455502,0.0193 -2.727207,0.49405 -3.81512,1.42411 -1.08792,0.93009 -1.788949,2.19953 -2.103089,3.80834 z m 2.239176,-1.16496 c 0.296526,-0.82312 0.746469,-1.45249 1.349828,-1.88813 0.603349,-0.43561 1.277218,-0.65528 2.021609,-0.65899 0.658378,-0.001 1.17589,0.20857 1.552537,0.62938 0.376629,0.42082 0.512361,1.06007 0.407198,1.91774 z"
         style="font-style:italic"
         id="path4121" />
      <path
         d="m 91.995624,1005.6629 1.915273,0 0.720753,-4.0872 c 0.05288,-0.3069 0.123833,-0.6113 0.212869,-0.9132 0.08903,-0.302 0.202669,-0.5965 0.340925,-0.88363 0.370507,-0.74578 0.84325,-1.3225 1.418231,-1.73016 0.574968,-0.40765 1.17494,-0.61415 1.799917,-0.61951 0.152169,0.002 0.279594,0.0123 0.382274,0.0296 0.102663,0.0173 0.156044,0.0272 0.160143,0.0296 l 0.334262,-1.89553 c -0.0042,-0.002 -0.05327,-0.008 -0.147075,-0.0197 -0.09382,-0.0115 -0.207019,-0.0181 -0.339588,-0.0198 -0.780106,0.0173 -1.486783,0.26904 -2.120033,0.75525 -0.633262,0.48623 -1.132859,1.10326 -1.498791,1.8511 l -0.03949,0 c 0.0026,-0.005 0.02208,-0.0786 0.05848,-0.21966 0.03639,-0.14109 0.07417,-0.31797 0.113321,-0.53065 l 0.306407,-1.73757 -1.856038,0 z"
         style="font-style:italic"
         id="path4123" />
      <path
         d="m 98.806449,1004.4387 c -0.0058,0.061 0.27705,0.3044 0.848551,0.7306 0.5715,0.4261 1.46645,0.6697 2.68484,0.7305 1.11247,-0.017 2.03741,-0.2937 2.77481,-0.8292 0.73739,-0.5356 1.18751,-1.2267 1.35038,-2.0733 0.11506,-0.8041 -0.0429,-1.4246 -0.47392,-1.8613 -0.43102,-0.4367 -0.95849,-0.7813 -1.5824,-1.0338 -0.62393,-0.25252 -1.16772,-0.50458 -1.63137,-0.75618 -0.46367,-0.25159 -0.6706,-0.59435 -0.62082,-1.02829 0.0925,-0.43109 0.31708,-0.74372 0.67383,-0.93789 0.35673,-0.19415 0.75037,-0.28959 1.18089,-0.2863 0.78738,0.037 1.37007,0.18512 1.74808,0.44426 0.37799,0.25916 0.56578,0.40725 0.56337,0.44427 l 1.02424,-1.4414 c 0.011,-0.0461 -0.21895,-0.23035 -0.68984,-0.55286 -0.47091,-0.32249 -1.24878,-0.50678 -2.33362,-0.55286 -1.02392,0.005 -1.91895,0.25176 -2.68509,0.74044 -0.76616,0.4887 -1.24271,1.18965 -1.42966,2.10285 -0.11421,0.79927 0.0442,1.41713 0.47528,1.85356 0.43106,0.4365 0.95822,0.7828 1.58149,1.0391 0.62325,0.2563 1.16608,0.5138 1.62848,0.7725 0.46239,0.2588 0.66783,0.6101 0.6163,1.0539 -0.0889,0.406 -0.31605,0.7145 -0.68152,0.9256 -0.36548,0.211 -0.76429,0.3171 -1.19643,0.3184 -0.87092,-0.049 -1.53105,-0.2427 -1.98039,-0.5825 -0.44934,-0.3398 -0.675078,-0.534 -0.677211,-0.5825 z"
         style="font-style:italic"
         id="path4125" />
      <path
         d="m 107.91641,1002.8591 c -0.14205,0.9992 0.0759,1.7553 0.65391,2.2682 0.578,0.513 1.31334,0.7705 2.20604,0.7725 0.79592,-0.024 1.45639,-0.195 1.98141,-0.5119 0.525,-0.3169 0.91728,-0.6338 1.17684,-0.9507 0.25954,-0.3169 0.38909,-0.4875 0.38864,-0.5119 l 0.0395,0 c -0.002,0 -0.0222,0.079 -0.0594,0.2246 -0.0371,0.1452 -0.0769,0.3336 -0.11942,0.5652 l -0.16713,0.9478 1.77706,0 1.11421,-6.31842 c 0.21712,-1.26862 0.0455,-2.23613 -0.51491,-2.90253 -0.56041,-0.66639 -1.47531,-1.00205 -2.74469,-1.007 -1.16627,0.0494 -2.10936,0.24682 -2.82928,0.59235 -0.71993,0.34555 -1.09042,0.543 -1.11146,0.59236 l 0.54259,1.4019 c 0.0268,-0.0403 0.32678,-0.20156 0.89979,-0.48376 0.573,-0.28218 1.25796,-0.44343 2.05488,-0.48375 0.64614,-0.0111 1.14109,0.14933 1.48486,0.48128 0.34376,0.33197 0.45054,0.90211 0.32035,1.71042 l -0.0313,0.17771 -0.4344,0 c -0.59943,-0.0186 -1.37779,0.034 -2.3351,0.15796 -0.95732,0.12396 -1.85369,0.43108 -2.68913,0.92148 -0.83544,0.4903 -1.37006,1.2757 -1.60387,2.3562 z m 1.95243,-0.099 c 0.12715,-0.5891 0.44602,-1.0191 0.95659,-1.29 0.51057,-0.271 1.08361,-0.4421 1.71913,-0.5134 0.63552,-0.071 1.20428,-0.102 1.70629,-0.092 l 0.49362,0 -0.0557,0.316 c -0.14749,0.7803 -0.51544,1.4953 -1.10385,2.1448 -0.58843,0.6495 -1.29587,0.9942 -2.12232,1.0341 -0.61956,-0.016 -1.05852,-0.1814 -1.31689,-0.4961 -0.25837,-0.3147 -0.35066,-0.6824 -0.27686,-1.1032 z"
         style="font-style:italic"
         id="path4127" />
      <path
         d="m 119.70291,1002.0101 c -0.16985,1.0965 -0.0779,1.9134 0.27576,2.4505 0.35368,0.5372 0.81136,0.8889 1.37304,1.0553 0.56167,0.1664 1.06956,0.2417 1.52367,0.226 0.20103,-0 0.36344,-0.01 0.48724,-0.02 0.12378,-0.011 0.18747,-0.018 0.19106,-0.02 l 0.29944,-1.6981 c -0.002,0 -0.0442,0.01 -0.12689,0.02 -0.0827,0.012 -0.19407,0.018 -0.33421,0.02 -0.41392,0.031 -0.83846,-0.095 -1.27361,-0.3776 -0.43516,-0.2826 -0.58913,-0.9071 -0.46192,-1.8733 l 0.78342,-4.44268 2.4089,0 0.27159,-1.54011 -2.4089,0 0.50836,-2.88279 -1.85604,0 -0.50836,2.88279 -1.36241,0 -0.27158,1.54011 1.30317,0 z"
         style="font-style:italic"
         id="path4129" />
      <path
         d="m 127.79529,993.67764 1.93502,0 0.34471,-1.95477 -1.93502,0 z m -2.09376,11.98526 1.91527,0 1.76184,-9.99101 -1.91527,0 z"
         style="font-style:italic"
         id="path4131" />
      <path
         d="m 130.96132,1002.9381 c -0.17005,1.2139 0.004,1.9946 0.52239,2.3422 0.5183,0.3476 1.07447,0.5015 1.66852,0.4616 0.17346,-0 0.32189,-0.01 0.44527,-0.02 0.12338,-0.011 0.18789,-0.018 0.19353,-0.02 l 0.29945,-1.6981 c -0.003,8e-4 -0.0374,0 -0.10294,0.01 -0.0656,0.01 -0.14434,0.01 -0.23621,0.01 -0.30642,0.016 -0.54293,-0.07 -0.70955,-0.2592 -0.16663,-0.1888 -0.20196,-0.5763 -0.10599,-1.1625 l 1.91853,-10.87953 -1.91528,0 z"
         style="font-style:italic"
         id="path4133" />
      <path
         d="m 136.03399,1000.6674 c -0.24267,1.5138 0.0278,2.7561 0.81133,3.7269 0.78357,0.9708 1.96945,1.4726 3.55765,1.5055 1.21695,-0.059 2.20238,-0.2961 2.9563,-0.7108 0.7539,-0.4146 1.14205,-0.6516 1.16443,-0.7108 l -0.54258,-1.4019 c -0.0246,0.049 -0.33775,0.2427 -0.93942,0.5825 -0.60168,0.3398 -1.34427,0.5339 -2.22778,0.5825 -0.91438,-5e-4 -1.64817,-0.2761 -2.20139,-0.8269 -0.55323,-0.5508 -0.77082,-1.3743 -0.65278,-2.4706 l 7.28594,0 c 0.006,-0.019 0.0343,-0.1246 0.0858,-0.3184 0.0514,-0.1937 0.0913,-0.364 0.11971,-0.5109 0.23023,-1.32658 0.057,-2.42984 -0.5196,-3.30974 -0.57665,-0.87988 -1.56977,-1.33648 -2.97936,-1.36981 -1.4555,0.0193 -2.72721,0.49405 -3.81512,1.42411 -1.08792,0.93009 -1.78895,2.19953 -2.10309,3.80834 z m 2.23918,-1.16496 c 0.29653,-0.82312 0.74647,-1.45249 1.34983,-1.88813 0.60335,-0.43561 1.27721,-0.65528 2.02161,-0.65899 0.65837,-0.001 1.17589,0.20857 1.55253,0.62938 0.37663,0.42082 0.51236,1.06007 0.4072,1.91774 z"
         style="font-style:italic"
         id="path4135" />
      <path
         d="m 151.88724,1005.6629 1.91527,0 0.80432,-4.5611 c 0.039,-0.2283 0.086,-0.4529 0.14104,-0.6738 0.055,-0.2209 0.12407,-0.4307 0.20724,-0.62939 0.32107,-0.73138 0.77102,-1.34677 1.34983,-1.84616 0.57881,-0.49938 1.23757,-0.75936 1.9763,-0.77993 0.74213,0.023 1.17926,0.27808 1.3114,0.76512 0.13212,0.48705 0.12678,1.06789 -0.016,1.7425 l -1.05501,5.98276 1.91527,0 0.80432,-4.5611 c 0.0866,-0.5101 0.21396,-0.9708 0.38195,-1.38217 0.30851,-0.70218 0.74989,-1.297 1.32414,-1.78446 0.57423,-0.48745 1.21717,-0.74167 1.92883,-0.76265 0.72757,0.0169 1.16853,0.25957 1.32286,0.7281 0.15431,0.46854 0.1583,1.06171 0.012,1.77952 l -1.05501,5.98276 1.91527,0 1.12813,-6.3974 c 0.22793,-1.27397 0.12846,-2.23078 -0.29843,-2.87045 -0.42691,-0.63964 -1.20142,-0.95968 -2.32351,-0.9601 -0.82531,0.0193 -1.59113,0.24724 -2.29745,0.68367 -0.70635,0.43646 -1.25871,0.96546 -1.65708,1.58701 l -0.0395,0 c -0.0346,-0.75112 -0.26712,-1.31715 -0.69768,-1.69807 -0.43058,-0.38091 -1.06496,-0.57178 -1.90315,-0.57261 -0.79997,0.0226 -1.54997,0.25875 -2.24998,0.70836 -0.70003,0.44962 -1.22988,0.97697 -1.58957,1.58207 l -0.0395,0 c 0.003,-0.006 0.022,-0.0781 0.0581,-0.2172 0.036,-0.13903 0.0728,-0.31015 0.11027,-0.51337 l 0.23329,-1.32292 -1.85604,0 z"
         style="font-style:italic"
         id="path4137" />
      <path
         d="m 169.62058,1002.8591 c -0.14205,0.9992 0.0759,1.7553 0.65391,2.2682 0.578,0.513 1.31334,0.7705 2.20604,0.7725 0.79592,-0.024 1.45639,-0.195 1.98141,-0.5119 0.525,-0.3169 0.91728,-0.6338 1.17684,-0.9507 0.25954,-0.3169 0.38909,-0.4875 0.38864,-0.5119 l 0.0395,0 c -0.002,0 -0.0222,0.079 -0.0593,0.2246 -0.0371,0.1452 -0.0769,0.3336 -0.11942,0.5652 l -0.16713,0.9478 1.77706,0 1.11421,-6.31842 c 0.21712,-1.26862 0.0455,-2.23613 -0.51491,-2.90253 -0.56041,-0.66639 -1.47531,-1.00205 -2.74469,-1.007 -1.16627,0.0494 -2.10936,0.24682 -2.82928,0.59235 -0.71993,0.34555 -1.09042,0.543 -1.11146,0.59236 l 0.54259,1.4019 c 0.0268,-0.0403 0.32678,-0.20156 0.89979,-0.48376 0.573,-0.28218 1.25796,-0.44343 2.05488,-0.48375 0.64614,-0.0111 1.14109,0.14933 1.48486,0.48128 0.34376,0.33197 0.45054,0.90211 0.32035,1.71042 l -0.0313,0.17771 -0.4344,0 c -0.59943,-0.0186 -1.37779,0.034 -2.3351,0.15796 -0.95732,0.12396 -1.85369,0.43108 -2.68913,0.92148 -0.83544,0.4903 -1.37006,1.2757 -1.60387,2.3562 z m 1.95243,-0.099 c 0.12715,-0.5891 0.44602,-1.0191 0.95659,-1.29 0.51057,-0.271 1.08361,-0.4421 1.71913,-0.5134 0.63552,-0.071 1.20428,-0.102 1.70629,-0.092 l 0.49362,0 -0.0557,0.316 c -0.14749,0.7803 -0.51544,1.4953 -1.10385,2.1448 -0.58843,0.6495 -1.29587,0.9942 -2.12232,1.0341 -0.61956,-0.016 -1.05852,-0.1814 -1.31689,-0.4961 -0.25837,-0.3147 -0.35066,-0.6824 -0.27686,-1.1032 z"
         style="font-style:italic"
         id="path4139" />
      <path
         d="m 181.40708,1002.0101 c -0.16985,1.0965 -0.0779,1.9134 0.27576,2.4505 0.35368,0.5372 0.81136,0.8889 1.37304,1.0553 0.56167,0.1664 1.06956,0.2417 1.52367,0.226 0.20103,-0 0.36344,-0.01 0.48724,-0.02 0.12378,-0.011 0.18747,-0.018 0.19106,-0.02 l 0.29944,-1.6981 c -0.002,0 -0.0442,0.01 -0.12689,0.02 -0.0827,0.012 -0.19407,0.018 -0.33421,0.02 -0.41392,0.031 -0.83846,-0.095 -1.27361,-0.3776 -0.43516,-0.2826 -0.58913,-0.9071 -0.46192,-1.8733 l 0.78342,-4.44268 2.4089,0 0.27159,-1.54011 -2.4089,0 0.50836,-2.88279 -1.85604,0 -0.50835,2.88279 -1.36242,0 -0.27158,1.54011 1.30317,0 z"
         style="font-style:italic"
         id="path4141" />
      <path
         d="m 187.4057,1005.6629 1.91528,0 0.82521,-4.6796 c 0.0411,-0.2377 0.0932,-0.4681 0.15642,-0.6911 0.0632,-0.2229 0.14144,-0.43352 0.23483,-0.6318 0.34858,-0.73344 0.84368,-1.32497 1.48529,-1.77459 0.64161,-0.44961 1.34466,-0.68079 2.10916,-0.69355 0.77571,0.0169 1.24875,0.25958 1.41912,0.7281 0.17035,0.46854 0.18175,1.06172 0.0342,1.77953 l -1.05153,5.96301 1.91527,0 1.12814,-6.3974 c 0.22834,-1.27397 0.11817,-2.23078 -0.33052,-2.87045 -0.44871,-0.63964 -1.25859,-0.95968 -2.42964,-0.9601 -1.00492,0.0325 -1.85954,0.28343 -2.56386,0.75278 -0.70433,0.46937 -1.21164,0.96217 -1.52192,1.47841 l -0.0395,0 c 0.003,-0.005 0.023,-0.0839 0.0615,-0.23694 0.0385,-0.15301 0.0799,-0.35046 0.12421,-0.59235 l 0.90181,-5.11398 -1.91527,0 z"
         style="font-style:italic"
         id="path4143" />
      <path
         d="m 198.72866,1004.4387 c -0.006,0.061 0.27705,0.3044 0.84855,0.7306 0.5715,0.4261 1.46645,0.6697 2.68484,0.7305 1.11247,-0.017 2.03741,-0.2937 2.77481,-0.8292 0.73739,-0.5356 1.18751,-1.2267 1.35038,-2.0733 0.11506,-0.8041 -0.0429,-1.4246 -0.47392,-1.8613 -0.43102,-0.4367 -0.95849,-0.7813 -1.5824,-1.0338 -0.62393,-0.25252 -1.16772,-0.50458 -1.63137,-0.75618 -0.46367,-0.25159 -0.6706,-0.59435 -0.62082,-1.02829 0.0925,-0.43109 0.31708,-0.74372 0.67383,-0.93789 0.35673,-0.19415 0.75037,-0.28959 1.18089,-0.2863 0.78738,0.037 1.37008,0.18512 1.74808,0.44426 0.37799,0.25916 0.56578,0.40725 0.56337,0.44427 l 1.02424,-1.4414 c 0.011,-0.0461 -0.21895,-0.23035 -0.68984,-0.55286 -0.47091,-0.32249 -1.24878,-0.50678 -2.33362,-0.55286 -1.02392,0.005 -1.91895,0.25176 -2.68509,0.74044 -0.76616,0.4887 -1.24271,1.18965 -1.42966,2.10285 -0.11421,0.79927 0.0442,1.41713 0.47528,1.85356 0.43106,0.4365 0.95822,0.7828 1.58149,1.0391 0.62325,0.2563 1.16608,0.5138 1.62848,0.7725 0.46239,0.2588 0.66783,0.6101 0.6163,1.0539 -0.0889,0.406 -0.31605,0.7145 -0.68152,0.9256 -0.36548,0.211 -0.76429,0.3171 -1.19643,0.3184 -0.87092,-0.049 -1.53105,-0.2427 -1.98039,-0.5825 -0.44934,-0.3398 -0.67508,-0.534 -0.67721,-0.5825 z"
         style="font-style:italic"
         id="path4145" />
      <path
         d="m 213.43417,1000.6674 c -0.24268,1.5138 0.0278,2.7561 0.81133,3.7269 0.78356,0.9708 1.96944,1.4726 3.55765,1.5055 1.21694,-0.059 2.20238,-0.2961 2.9563,-0.7108 0.7539,-0.4146 1.14205,-0.6516 1.16443,-0.7108 l -0.54259,-1.4019 c -0.0246,0.049 -0.33775,0.2427 -0.93941,0.5825 -0.60168,0.3398 -1.34428,0.5339 -2.22778,0.5825 -0.91438,-5e-4 -1.64818,-0.2761 -2.20139,-0.8269 -0.55323,-0.5508 -0.77082,-1.3743 -0.65278,-2.4706 l 7.28594,0 c 0.006,-0.019 0.0343,-0.1246 0.0858,-0.3184 0.0514,-0.1937 0.0913,-0.364 0.11971,-0.5109 0.23023,-1.32658 0.057,-2.42984 -0.5196,-3.30974 -0.57665,-0.87988 -1.56977,-1.33648 -2.97936,-1.36981 -1.4555,0.0193 -2.72721,0.49405 -3.81512,1.42411 -1.08792,0.93009 -1.78895,2.19953 -2.10309,3.80834 z m 2.23918,-1.16496 c 0.29652,-0.82312 0.74646,-1.45249 1.34982,-1.88813 0.60335,-0.43561 1.27722,-0.65528 2.02161,-0.65899 0.65838,-0.001 1.17589,0.20857 1.55254,0.62938 0.37663,0.42082 0.51236,1.06007 0.4072,1.91774 z"
         style="font-style:italic"
         id="path4147" />
      <path
         d="m 225.31588,1000.8846 5.76556,0 0.29944,-1.69808 -5.76556,0 z"
         style="font-style:italic"
         id="path4149" />
      <path
         d="m 233.21446,1002.8591 c -0.14206,0.9992 0.0759,1.7553 0.65391,2.2682 0.57799,0.513 1.31333,0.7705 2.20603,0.7725 0.79592,-0.024 1.45639,-0.195 1.98141,-0.5119 0.525,-0.3169 0.91728,-0.6338 1.17684,-0.9507 0.25954,-0.3169 0.38909,-0.4875 0.38864,-0.5119 l 0.0395,0 c -0.002,0 -0.0222,0.079 -0.0593,0.2246 -0.0371,0.1452 -0.0769,0.3336 -0.11941,0.5652 l -0.16714,0.9478 1.77706,0 1.11421,-6.31842 c 0.21712,-1.26862 0.0455,-2.23613 -0.51491,-2.90253 -0.56041,-0.66639 -1.4753,-1.00205 -2.74469,-1.007 -1.16627,0.0494 -2.10936,0.24682 -2.82928,0.59235 -0.71993,0.34555 -1.09041,0.543 -1.11146,0.59236 l 0.54259,1.4019 c 0.0269,-0.0403 0.32678,-0.20156 0.89979,-0.48376 0.57301,-0.28218 1.25796,-0.44343 2.05488,-0.48375 0.64614,-0.0111 1.14109,0.14933 1.48487,0.48128 0.34375,0.33197 0.45054,0.90211 0.32035,1.71042 l -0.0313,0.17771 -0.43439,0 c -0.59943,-0.0186 -1.3778,0.034 -2.33511,0.15796 -0.95732,0.12396 -1.85369,0.43108 -2.68913,0.92148 -0.83544,0.4903 -1.37006,1.2757 -1.60386,2.3562 z m 1.95242,-0.099 c 0.12716,-0.5891 0.44602,-1.0191 0.95659,-1.29 0.51057,-0.271 1.08361,-0.4421 1.71914,-0.5134 0.63551,-0.071 1.20427,-0.102 1.70628,-0.092 l 0.49363,0 -0.0557,0.316 c -0.14748,0.7803 -0.51543,1.4953 -1.10385,2.1448 -0.58843,0.6495 -1.29587,0.9942 -2.12232,1.0341 -0.61955,-0.016 -1.05852,-0.1814 -1.31688,-0.4961 -0.25838,-0.3147 -0.35067,-0.6824 -0.27687,-1.1032 z"
         style="font-style:italic"
         id="path4151" />
      <path
         d="m 243.34849,1004.4387 c -0.006,0.061 0.27705,0.3044 0.84855,0.7306 0.5715,0.4261 1.46644,0.6697 2.68484,0.7305 1.11247,-0.017 2.0374,-0.2937 2.77481,-0.8292 0.73738,-0.5356 1.18751,-1.2267 1.35038,-2.0733 0.11506,-0.8041 -0.0429,-1.4246 -0.47392,-1.8613 -0.43102,-0.4367 -0.95849,-0.7813 -1.58241,-1.0338 -0.62393,-0.25252 -1.16771,-0.50458 -1.63137,-0.75618 -0.46366,-0.25159 -0.6706,-0.59435 -0.62081,-1.02829 0.0925,-0.43109 0.31708,-0.74372 0.67383,-0.93789 0.35673,-0.19415 0.75036,-0.28959 1.18089,-0.2863 0.78738,0.037 1.37007,0.18512 1.74808,0.44426 0.37798,0.25916 0.56578,0.40725 0.56337,0.44427 l 1.02424,-1.4414 c 0.011,-0.0461 -0.21896,-0.23035 -0.68985,-0.55286 -0.4709,-0.32249 -1.24878,-0.50678 -2.33362,-0.55286 -1.02391,0.005 -1.91894,0.25176 -2.68509,0.74044 -0.76615,0.4887 -1.2427,1.18965 -1.42965,2.10285 -0.11421,0.79927 0.0442,1.41713 0.47528,1.85356 0.43106,0.4365 0.95822,0.7828 1.58148,1.0391 0.62326,0.2563 1.16609,0.5138 1.62849,0.7725 0.46239,0.2588 0.66782,0.6101 0.6163,1.0539 -0.0889,0.406 -0.31606,0.7145 -0.68152,0.9256 -0.36548,0.211 -0.76429,0.3171 -1.19643,0.3184 -0.87092,-0.049 -1.53105,-0.2427 -1.98039,-0.5825 -0.44934,-0.3398 -0.67508,-0.534 -0.67721,-0.5825 z"
         style="font-style:italic"
         id="path4153" />
      <path
         d="m 252.17989,1004.4387 c -0.006,0.061 0.27705,0.3044 0.84855,0.7306 0.5715,0.4261 1.46645,0.6697 2.68485,0.7305 1.11247,-0.017 2.0374,-0.2937 2.7748,-0.8292 0.73739,-0.5356 1.18752,-1.2267 1.35039,-2.0733 0.11506,-0.8041 -0.0429,-1.4246 -0.47392,-1.8613 -0.43103,-0.4367 -0.9585,-0.7813 -1.58241,-1.0338 -0.62393,-0.25252 -1.16772,-0.50458 -1.63137,-0.75618 -0.46366,-0.25159 -0.6706,-0.59435 -0.62081,-1.02829 0.0925,-0.43109 0.31708,-0.74372 0.67382,-0.93789 0.35674,-0.19415 0.75037,-0.28959 1.1809,-0.2863 0.78738,0.037 1.37007,0.18512 1.74807,0.44426 0.37799,0.25916 0.56578,0.40725 0.56338,0.44427 l 1.02423,-1.4414 c 0.011,-0.0461 -0.21895,-0.23035 -0.68984,-0.55286 -0.47091,-0.32249 -1.24878,-0.50678 -2.33362,-0.55286 -1.02392,0.005 -1.91895,0.25176 -2.68509,0.74044 -0.76615,0.4887 -1.2427,1.18965 -1.42965,2.10285 -0.11421,0.79927 0.0442,1.41713 0.47528,1.85356 0.43105,0.4365 0.95821,0.7828 1.58148,1.0391 0.62326,0.2563 1.16608,0.5138 1.62849,0.7725 0.46239,0.2588 0.66782,0.6101 0.61629,1.0539 -0.0889,0.406 -0.31605,0.7145 -0.68152,0.9256 -0.36548,0.211 -0.76429,0.3171 -1.19642,0.3184 -0.87093,-0.049 -1.53106,-0.2427 -1.98039,-0.5825 -0.44935,-0.3398 -0.67508,-0.534 -0.67722,-0.5825 z"
         style="font-style:italic"
         id="path4155" />
      <path
         d="m 261.79483,1000.6674 c -0.24268,1.5138 0.0278,2.7561 0.81133,3.7269 0.78356,0.9708 1.96944,1.4726 3.55765,1.5055 1.21694,-0.059 2.20237,-0.2961 2.95629,-0.7108 0.75391,-0.4146 1.14205,-0.6516 1.16444,-0.7108 l -0.54259,-1.4019 c -0.0246,0.049 -0.33775,0.2427 -0.93941,0.5825 -0.60169,0.3398 -1.34428,0.5339 -2.22778,0.5825 -0.91438,-5e-4 -1.64818,-0.2761 -2.2014,-0.8269 -0.55322,-0.5508 -0.77082,-1.3743 -0.65277,-2.4706 l 7.28593,0 c 0.006,-0.019 0.0343,-0.1246 0.0858,-0.3184 0.0514,-0.1937 0.0913,-0.364 0.11971,-0.5109 0.23023,-1.32658 0.057,-2.42984 -0.5196,-3.30974 -0.57665,-0.87988 -1.56977,-1.33648 -2.97936,-1.36981 -1.45551,0.0193 -2.72721,0.49405 -3.81512,1.42411 -1.08792,0.93009 -1.78895,2.19953 -2.10309,3.80834 z m 2.23917,-1.16496 c 0.29653,-0.82312 0.74647,-1.45249 1.34983,-1.88813 0.60335,-0.43561 1.27722,-0.65528 2.02161,-0.65899 0.65838,-0.001 1.17589,0.20857 1.55254,0.62938 0.37663,0.42082 0.51236,1.06007 0.40719,1.91774 z"
         style="font-style:italic"
         id="path4157" />
      <path
         d="m 271.9638,1004.4387 c -0.006,0.061 0.27705,0.3044 0.84855,0.7306 0.5715,0.4261 1.46644,0.6697 2.68484,0.7305 1.11247,-0.017 2.0374,-0.2937 2.77481,-0.8292 0.73738,-0.5356 1.18751,-1.2267 1.35038,-2.0733 0.11506,-0.8041 -0.0429,-1.4246 -0.47392,-1.8613 -0.43102,-0.4367 -0.95849,-0.7813 -1.58241,-1.0338 -0.62392,-0.25252 -1.16771,-0.50458 -1.63137,-0.75618 -0.46366,-0.25159 -0.6706,-0.59435 -0.62081,-1.02829 0.0925,-0.43109 0.31708,-0.74372 0.67383,-0.93789 0.35673,-0.19415 0.75036,-0.28959 1.18089,-0.2863 0.78738,0.037 1.37007,0.18512 1.74808,0.44426 0.37799,0.25916 0.56578,0.40725 0.56337,0.44427 l 1.02424,-1.4414 c 0.011,-0.0461 -0.21896,-0.23035 -0.68984,-0.55286 -0.47091,-0.32249 -1.24878,-0.50678 -2.33363,-0.55286 -1.02391,0.005 -1.91894,0.25176 -2.68509,0.74044 -0.76615,0.4887 -1.2427,1.18965 -1.42965,2.10285 -0.11421,0.79927 0.0442,1.41713 0.47528,1.85356 0.43106,0.4365 0.95822,0.7828 1.58148,1.0391 0.62326,0.2563 1.16609,0.5138 1.62849,0.7725 0.46239,0.2588 0.66782,0.6101 0.6163,1.0539 -0.0889,0.406 -0.31606,0.7145 -0.68152,0.9256 -0.36548,0.211 -0.76429,0.3171 -1.19643,0.3184 -0.87092,-0.049 -1.53105,-0.2427 -1.98039,-0.5825 -0.44934,-0.3398 -0.67508,-0.534 -0.67721,-0.5825 z"
         style="font-style:italic"
         id="path4159" />
      <path
         d="m 280.79522,1004.4387 c -0.006,0.061 0.27705,0.3044 0.84855,0.7306 0.5715,0.4261 1.46644,0.6697 2.68484,0.7305 1.11247,-0.017 2.03741,-0.2937 2.77481,-0.8292 0.73739,-0.5356 1.18751,-1.2267 1.35038,-2.0733 0.11506,-0.8041 -0.0429,-1.4246 -0.47392,-1.8613 -0.43102,-0.4367 -0.95849,-0.7813 -1.5824,-1.0338 -0.62393,-0.25252 -1.16772,-0.50458 -1.63138,-0.75618 -0.46366,-0.25159 -0.67059,-0.59435 -0.62081,-1.02829 0.0925,-0.43109 0.31708,-0.74372 0.67383,-0.93789 0.35673,-0.19415 0.75036,-0.28959 1.18089,-0.2863 0.78738,0.037 1.37007,0.18512 1.74808,0.44426 0.37799,0.25916 0.56578,0.40725 0.56337,0.44427 l 1.02424,-1.4414 c 0.011,-0.0461 -0.21895,-0.23035 -0.68984,-0.55286 -0.47091,-0.32249 -1.24878,-0.50678 -2.33362,-0.55286 -1.02392,0.005 -1.91895,0.25176 -2.6851,0.74044 -0.76615,0.4887 -1.2427,1.18965 -1.42965,2.10285 -0.11421,0.79927 0.0442,1.41713 0.47528,1.85356 0.43106,0.4365 0.95822,0.7828 1.58148,1.0391 0.62326,0.2563 1.16609,0.5138 1.62849,0.7725 0.46239,0.2588 0.66783,0.6101 0.6163,1.0539 -0.0889,0.406 -0.31605,0.7145 -0.68152,0.9256 -0.36548,0.211 -0.76429,0.3171 -1.19643,0.3184 -0.87092,-0.049 -1.53105,-0.2427 -1.98039,-0.5825 -0.44934,-0.3398 -0.67508,-0.534 -0.67721,-0.5825 z"
         style="font-style:italic"
         id="path4161" />
      <path
         d="m 290.22028,1005.6629 1.91527,0 0.80432,-4.5611 c 0.039,-0.2283 0.086,-0.4529 0.14103,-0.6738 0.055,-0.2209 0.12408,-0.4307 0.20725,-0.62939 0.32107,-0.73138 0.77101,-1.34677 1.34983,-1.84616 0.5788,-0.49938 1.23757,-0.75936 1.9763,-0.77993 0.74213,0.023 1.17926,0.27808 1.3114,0.76512 0.13212,0.48705 0.12678,1.06789 -0.016,1.7425 l -1.05501,5.98276 1.91527,0 0.80432,-4.5611 c 0.0866,-0.5101 0.21396,-0.9708 0.38195,-1.38217 0.30851,-0.70218 0.74989,-1.297 1.32414,-1.78446 0.57423,-0.48745 1.21717,-0.74167 1.92882,-0.76265 0.72758,0.0169 1.16854,0.25957 1.32287,0.7281 0.15431,0.46854 0.1583,1.06171 0.012,1.77952 l -1.05502,5.98276 1.91528,0 1.12813,-6.3974 c 0.22793,-1.27397 0.12845,-2.23078 -0.29843,-2.87045 -0.42692,-0.63964 -1.20142,-0.95968 -2.32351,-0.9601 -0.82531,0.0193 -1.59113,0.24724 -2.29745,0.68367 -0.70636,0.43646 -1.25871,0.96546 -1.65708,1.58701 l -0.0395,0 c -0.0346,-0.75112 -0.26713,-1.31715 -0.69768,-1.69807 -0.43058,-0.38091 -1.06497,-0.57178 -1.90315,-0.57261 -0.79998,0.0226 -1.54997,0.25875 -2.24998,0.70836 -0.70003,0.44962 -1.22988,0.97697 -1.58957,1.58207 l -0.0395,0 c 0.003,-0.006 0.022,-0.0781 0.058,-0.2172 0.036,-0.13903 0.0728,-0.31015 0.11027,-0.51337 l 0.23329,-1.32292 -1.85604,0 z"
         style="font-style:italic"
         id="path4163" />
      <path
         d="m 308.45861,1000.6674 c -0.24267,1.5138 0.0278,2.7561 0.81134,3.7269 0.78356,0.9708 1.96944,1.4726 3.55764,1.5055 1.21695,-0.059 2.20238,-0.2961 2.9563,-0.7108 0.75391,-0.4146 1.14205,-0.6516 1.16444,-0.7108 l -0.54259,-1.4019 c -0.0246,0.049 -0.33775,0.2427 -0.93942,0.5825 -0.60168,0.3398 -1.34427,0.5339 -2.22778,0.5825 -0.91437,-5e-4 -1.64817,-0.2761 -2.20139,-0.8269 -0.55323,-0.5508 -0.77082,-1.3743 -0.65277,-2.4706 l 7.28593,0 c 0.006,-0.019 0.0343,-0.1246 0.0858,-0.3184 0.0514,-0.1937 0.0913,-0.364 0.11972,-0.5109 0.23022,-1.32658 0.057,-2.42984 -0.51961,-3.30974 -0.57665,-0.87988 -1.56977,-1.33648 -2.97936,-1.36981 -1.4555,0.0193 -2.7272,0.49405 -3.81512,1.42411 -1.08792,0.93009 -1.78895,2.19953 -2.10309,3.80834 z m 2.23918,-1.16496 c 0.29653,-0.82312 0.74647,-1.45249 1.34983,-1.88813 0.60335,-0.43561 1.27722,-0.65528 2.02161,-0.65899 0.65838,-0.001 1.17589,0.20857 1.55253,0.62938 0.37663,0.42082 0.51237,1.06007 0.4072,1.91774 z"
         style="font-style:italic"
         id="path4165" />
      <path
         d="m 319.22126,1005.6629 1.91527,0 0.82521,-4.6796 c 0.081,-0.4969 0.21262,-0.9444 0.39473,-1.34265 0.34721,-0.73262 0.83926,-1.32085 1.47615,-1.76471 0.63689,-0.44385 1.34183,-0.67174 2.11482,-0.68368 0.77571,0.0169 1.24875,0.25958 1.41912,0.7281 0.17035,0.46854 0.18176,1.06172 0.0342,1.77953 l -1.05153,5.96301 1.91527,0 1.12814,-6.3974 c 0.22834,-1.27397 0.11817,-2.23078 -0.33052,-2.87045 -0.44871,-0.63964 -1.25859,-0.95968 -2.42964,-0.9601 -1.08912,0.0412 -1.98468,0.31429 -2.68668,0.81942 -0.702,0.50515 -1.19159,0.99549 -1.46878,1.47101 l -0.0395,0 c 0.003,-0.006 0.022,-0.0781 0.058,-0.2172 0.036,-0.13903 0.0728,-0.31015 0.11028,-0.51337 l 0.23328,-1.32292 -1.85603,0 z"
         style="font-style:italic"
         id="path4167" />
      <path
         d="m 332.19668,1002.0101 c -0.16985,1.0965 -0.0779,1.9134 0.27575,2.4505 0.35369,0.5372 0.81137,0.8889 1.37305,1.0553 0.56167,0.1664 1.06956,0.2417 1.52367,0.226 0.20102,-0 0.36343,-0.01 0.48723,-0.02 0.12379,-0.011 0.18748,-0.018 0.19106,-0.02 l 0.29945,-1.6981 c -0.002,0 -0.0442,0.01 -0.12689,0.02 -0.0827,0.012 -0.19407,0.018 -0.33421,0.02 -0.41393,0.031 -0.83846,-0.095 -1.27361,-0.3776 -0.43516,-0.2826 -0.58913,-0.9071 -0.46193,-1.8733 l 0.78343,-4.44268 2.4089,0 0.27159,-1.54011 -2.4089,0 0.50836,-2.88279 -1.85604,0 -0.50836,2.88279 -1.36241,0 -0.27159,1.54011 1.30318,0 z"
         style="font-style:italic"
         id="path4169" />
      <text
         xml:space="preserve"
         style="font-size:16px;font-style:normal;font-variant:normal;font-weight:normal;font-stretch:normal;line-height:125%;letter-spacing:0px;word-spacing:0px;fill:#000000;fill-opacity:1;stroke:none;font-family:Museo Sans 500;-inkscape-font-specification:Museo Sans 500"
         x="44.046635"
         y="94.259804"
         id="text4219"
         sodipodi:linespacing="125%"
         transform="translate(0,910.62991)"><tspan
           sodipodi:role="line"
           id="tspan4221"></tspan></text>
    </g>
    <g
       id="g4044"
       transform="translate(-1.4180931e-5,30.405589)">
      <g
         transform="matrix(0.52708486,0,0,0.52708486,-27.735198,454.01526)"
         id="text2985-1-7-3"
         style="font-size:40px;font-style:normal;font-weight:normal;line-height:125%;letter-spacing:0px;word-spacing:0px;fill:#ffffff;fill-opacity:1;stroke:none;font-family:Sans">
        <g
           style="font-size:30.22614288px;font-variant:normal;font-stretch:normal;line-height:125%;fill:#ffffff;font-family:Museo Sans 500;-inkscape-font-specification:Museo Sans 500"
           id="text3025-6-2">
          <path
             d="m 86.232309,1032.8391 c 0.05667,3.1586 1.129684,5.7731 3.219043,7.8436 2.089348,2.0705 4.855002,3.1435 8.29697,3.2191 l 0,-2.3879 c -2.605723,-0.063 -4.678704,-0.9118 -6.21895,-2.5465 -1.540259,-1.6347 -2.328647,-3.6775 -2.365165,-6.1283 0.051,-2.4281 0.840648,-4.4784 2.368944,-6.1509 1.528281,-1.6725 3.489175,-2.544 5.882687,-2.6145 1.56228,0.022 2.759972,0.3255 3.593082,0.9105 0.83308,0.585 1.26758,1.3193 1.30349,2.2027 l -3.264381,0 c -1.926905,0.049 -3.445748,0.6165 -4.556533,1.704 -1.110805,1.0875 -1.677537,2.4036 -1.700198,3.9482 0.02455,1.5737 0.595061,2.9074 1.711534,4.0012 1.116452,1.0938 2.631516,1.6643 4.545197,1.7115 l 8.251631,0 0,-2.2065 -2.17625,0 0,-8.5539 c 0.0371,-1.6573 -0.54346,-3.0805 -1.74176,-4.2694 -1.19835,-1.1888 -3.23732,-1.811 -6.116941,-1.8664 -3.157341,0.077 -5.766828,1.1624 -7.82847,3.2568 -2.061651,2.0944 -3.129627,4.7367 -3.20393,7.9267 z m 9.521113,-0.03 c 0.01636,-1.0094 0.346325,-1.8545 0.989894,-2.5352 0.643543,-0.6807 1.502458,-1.0346 2.576745,-1.0617 l 2.992349,0 0,7.1333 -3.052801,0 c -1.045321,-0.024 -1.886604,-0.3684 -2.523851,-1.0314 -0.637271,-0.6631 -0.964716,-1.4981 -0.982336,-2.505 z"
             style=""
             id="path4172" />
          <path
             d="m 112.14555,1040.1235 2.99235,0 0,-13.8434 c -0.009,-0.6586 -0.0441,-1.3286 -0.1058,-2.01 -0.0617,-0.6813 -0.097,-1.049 -0.10578,-1.1032 l 0.0605,0 c 0.0252,0.056 0.22417,0.4276 0.59696,1.1146 0.37277,0.687 0.76823,1.3532 1.18636,1.9986 l 9.52111,13.8434 2.9319,0 0,-21.3393 -2.99235,0 0,13.8736 c 0.009,0.6442 0.0441,1.3054 0.10579,1.9835 0.0617,0.6782 0.097,1.0447 0.10579,1.0995 l -0.0605,0 c -0.0252,-0.057 -0.22419,-0.4269 -0.59696,-1.1108 -0.3728,-0.6838 -0.76826,-1.3413 -1.18636,-1.9722 l -9.49089,-13.8736 -2.96212,0 z"
             style=""
             id="path4174" />
          <path
             d="m 133.60046,1029.3329 c 0.0541,3.2021 1.07175,5.8431 3.0528,7.923 1.98104,2.0799 4.6006,3.1567 7.85869,3.2303 1.78648,-0.042 3.29478,-0.3343 4.52491,-0.8776 1.2301,-0.5433 2.16299,-1.0867 2.79868,-1.63 0.63565,-0.5433 0.95508,-0.8358 0.95827,-0.8776 l -1.60197,-2.1461 c -0.007,0.034 -0.27858,0.2747 -0.81497,0.721 -0.53643,0.4463 -1.29618,0.8926 -2.27925,1.3389 -0.9831,0.4463 -2.14809,0.6866 -3.49499,0.7209 -2.40611,-0.066 -4.31914,-0.9011 -5.73911,-2.505 -1.41999,-1.6038 -2.14667,-3.5798 -2.18004,-5.928 0.0302,-2.3236 0.74809,-4.2505 2.15359,-5.7807 1.40549,-1.5301 3.31726,-2.3235 5.73533,-2.3802 1.87021,0.097 3.35883,0.4849 4.46586,1.1637 1.107,0.6788 1.67373,1.0667 1.7002,1.1636 l 1.48106,-2.2367 c -7.7e-4,-0.035 -0.29146,-0.2776 -0.87207,-0.7287 -0.58065,-0.4512 -1.44675,-0.9023 -2.59829,-1.3535 -1.15158,-0.4511 -2.58413,-0.694 -4.29766,-0.7288 -3.16301,0.067 -5.74605,1.1115 -7.74913,3.1322 -2.00309,2.0207 -3.03706,4.6138 -3.10191,7.7793 z"
             style=""
             id="path4176" />
          <path
             d="m 156.89441,1040.1235 12.54369,0 0,-2.5994 -9.55134,0 0,-18.7399 -2.99235,0 z"
             style=""
             id="path4178" />
          <path
             d="m 172.89301,1040.1235 2.99234,0 0,-13.8434 c -0.009,-0.6586 -0.0441,-1.3286 -0.10579,-2.01 -0.0617,-0.6813 -0.097,-1.049 -0.10579,-1.1032 l 0.0605,0 c 0.0252,0.056 0.22417,0.4276 0.59696,1.1146 0.37277,0.687 0.76823,1.3532 1.18636,1.9986 l 9.52111,13.8434 2.9319,0 0,-21.3393 -2.99235,0 0,13.8736 c 0.009,0.6442 0.0441,1.3054 0.10579,1.9835 0.0617,0.6782 0.0969,1.0447 0.10579,1.0995 l -0.0604,0 c -0.0252,-0.057 -0.2242,-0.4269 -0.59696,-1.1108 -0.3728,-0.6838 -0.76826,-1.3413 -1.18636,-1.9722 l -9.49089,-13.8736 -2.96212,0 z"
             style=""
             id="path4180" />
          <path
             d="m 194.98266,1034.6224 c 0.003,2.0164 0.44331,3.4999 1.32238,4.4508 0.87906,0.9508 2.18129,1.4219 3.90668,1.413 1.50372,-0.052 2.73542,-0.447 3.6951,-1.1863 0.95965,-0.7393 1.60195,-1.5126 1.92689,-2.3198 l 0.0605,0 c -0.003,0.01 -0.0126,0.1139 -0.0302,0.3211 -0.0177,0.2072 -0.0277,0.4729 -0.0302,0.7972 l 0,2.0251 2.84122,0 0,-15.2942 -2.9319,0 0,7.1635 c -0.012,1.5629 -0.44899,2.9029 -1.31104,4.02 -0.86207,1.1171 -2.0774,1.7015 -3.64598,1.7531 -1.19078,-0.026 -1.97539,-0.3967 -2.35383,-1.1108 -0.37846,-0.714 -0.551,-1.6133 -0.51762,-2.6976 l 0,-9.1282 -2.9319,0 z"
             style=""
             id="path4182" />
          <path
             d="m 213.25909,1040.1235 2.93189,0 0,-6.9821 c -0.002,-0.3495 0.009,-0.6933 0.034,-1.0315 0.0246,-0.3381 0.0737,-0.6593 0.14735,-0.9634 0.29407,-1.1196 0.81672,-2.0617 1.56796,-2.8261 0.75123,-0.7645 1.68949,-1.1624 2.81477,-1.1939 1.14227,0.035 1.88029,0.4257 2.21404,1.1712 0.33373,0.7456 0.48234,1.6347 0.44583,2.6674 l 0,9.1584 2.9319,0 0,-6.9821 c -0.005,-0.7808 0.0655,-1.4861 0.21158,-2.1158 0.28272,-1.0749 0.79782,-1.9855 1.54529,-2.7317 0.74744,-0.7462 1.66303,-1.1353 2.74677,-1.1674 1.11833,0.026 1.85886,0.3973 2.22159,1.1145 0.36268,0.7173 0.52893,1.6253 0.49872,2.7241 l 0,9.1584 2.9319,0 0,-9.7931 c 0.005,-1.9502 -0.40555,-3.4149 -1.2317,-4.3941 -0.82619,-0.9792 -2.09819,-1.4691 -3.816,-1.4697 -1.25817,0.03 -2.36896,0.3785 -3.33239,1.0466 -0.96346,0.6681 -1.66621,1.4779 -2.10825,2.4294 l -0.0605,0 c -0.25567,-1.1499 -0.76447,-2.0163 -1.5264,-2.5995 -0.76195,-0.583 -1.78459,-0.8752 -3.06791,-0.8765 -1.21849,0.035 -2.30283,0.3961 -3.25305,1.0843 -0.95023,0.6883 -1.61897,1.4956 -2.00623,2.4219 l -0.0605,0 c 0.003,-0.01 0.0126,-0.1196 0.0302,-0.3325 0.0176,-0.2128 0.0277,-0.4748 0.0302,-0.7859 l 0,-2.0251 -2.84122,0 z"
             style=""
             id="path4184" />
          <path
             d="m 240.88767,1040.1235 2.78077,0 0,-1.1183 c -0.003,-0.3388 -0.0126,-0.6133 -0.0302,-0.8237 -0.0176,-0.2103 -0.0277,-0.3186 -0.0302,-0.3249 l 0.0605,0 c -0.004,0.033 0.1584,0.2597 0.48697,0.6818 0.32856,0.422 0.84688,0.844 1.55495,1.2661 0.70806,0.422 1.62938,0.6493 2.76398,0.6817 2.04841,-0.03 3.70956,-0.7562 4.98347,-2.18 1.27387,-1.4237 1.93002,-3.367 1.96845,-5.8298 -0.0227,-2.4098 -0.6272,-4.338 -1.81355,-5.7844 -1.18637,-1.4464 -2.81856,-2.1882 -4.89657,-2.2254 -1.1928,0.032 -2.14883,0.2567 -2.86809,0.6739 -0.71926,0.4172 -1.2387,0.8344 -1.5583,1.2516 -0.31962,0.4172 -0.47634,0.6418 -0.47018,0.6739 l -0.0605,0 c 0.003,-0.01 0.0126,-0.1291 0.0302,-0.3665 0.0176,-0.2374 0.0277,-0.5484 0.0302,-0.9332 l 0,-6.9821 -2.9319,0 z m 2.84122,-7.5866 c 0.0403,-1.9351 0.48865,-3.3393 1.34505,-4.2127 0.85639,-0.8734 1.87902,-1.3029 3.06791,-1.2884 1.29088,0.02 2.32863,0.5164 3.11326,1.4886 0.78459,0.9723 1.1876,2.2997 1.20903,3.9822 -0.0328,1.7487 -0.466,3.095 -1.29971,4.039 -0.83374,0.9439 -1.87149,1.4212 -3.11325,1.4319 -1.44959,-0.057 -2.53268,-0.6234 -3.24927,-1.7002 -0.71661,-1.0768 -1.07428,-2.3236 -1.07302,-3.7404 z"
             style=""
             id="path4186" />
          <path
             d="m 257.77229,1035.8315 c 0.0523,1.5295 0.59003,2.6869 1.6133,3.4722 1.02326,0.7852 2.21844,1.1794 3.58553,1.1825 1.21182,-0.037 2.1768,-0.2985 2.89495,-0.7836 0.71814,-0.4851 1.23309,-0.9702 1.54487,-1.4553 0.31177,-0.4851 0.46401,-0.7463 0.45675,-0.7836 l 0.0605,0 c -0.003,0.01 -0.0126,0.1215 -0.0302,0.3438 -0.0176,0.2223 -0.0277,0.5107 -0.0302,0.8652 l 0,1.4508 2.72032,0 0,-9.6722 c -0.0101,-1.942 -0.534,-3.4231 -1.57174,-4.4432 -1.03776,-1.0201 -2.5289,-1.5339 -4.47341,-1.5415 -1.77199,0.076 -3.16238,0.3778 -4.17116,0.9068 -1.00879,0.5289 -1.52262,0.8312 -1.54151,0.9067 l 1.20903,2.1461 c 0.0302,-0.062 0.44582,-0.3086 1.24681,-0.7406 0.80098,-0.4319 1.80598,-0.6788 3.01502,-0.7405 0.98611,-0.017 1.78709,0.2286 2.40295,0.7368 0.61584,0.5081 0.93321,1.3809 0.95211,2.6183 l 0,0.272 -0.66497,0 c -0.92264,-0.029 -2.09995,0.052 -3.53193,0.2418 -1.432,0.1898 -2.72126,0.6599 -3.86778,1.4105 -1.14653,0.7507 -1.75291,1.953 -1.81914,3.607 z m 2.96212,-0.1512 c 0.0356,-0.9017 0.40767,-1.5599 1.11612,-1.9747 0.70843,-0.4148 1.53945,-0.6767 2.49306,-0.7859 0.9536,-0.1091 1.81596,-0.1561 2.5871,-0.141 l 0.75564,0 0,0.4836 c -0.0151,1.1945 -0.38538,2.289 -1.11079,3.2833 -0.72543,0.9943 -1.71532,1.522 -2.96968,1.583 -0.95275,-0.024 -1.66935,-0.2777 -2.14981,-0.7594 -0.48047,-0.4817 -0.72101,-1.0447 -0.72164,-1.6889 z"
             style=""
             id="path4188" />
          <path
             d="m 273.71186,1038.2495 c 0.008,0.093 0.50628,0.466 1.49618,1.1184 0.98989,0.6524 2.42561,1.0251 4.30717,1.1183 1.6983,-0.026 3.03956,-0.4496 4.0238,-1.2694 0.98421,-0.8199 1.48672,-1.8778 1.50751,-3.1737 -0.097,-1.6171 -0.77618,-2.7758 -2.03744,-3.476 -1.26128,-0.7002 -2.52255,-1.2745 -3.78382,-1.7229 -1.26127,-0.4483 -1.94042,-1.1032 -2.03744,-1.9646 0.0252,-0.66 0.28463,-1.1385 0.77832,-1.4358 0.49368,-0.2972 1.07049,-0.4433 1.73042,-0.4382 1.21532,0.057 2.14728,0.2833 2.79588,0.68 0.64859,0.3968 0.97603,0.6235 0.98234,0.6801 l 1.17881,-2.2065 c 0.004,-0.071 -0.39736,-0.3526 -1.20526,-0.8463 -0.80792,-0.4937 -2.04843,-0.7758 -3.72154,-0.8463 -1.56608,0.01 -2.86956,0.3854 -3.91046,1.1335 -1.0409,0.7481 -1.58119,1.8211 -1.62086,3.219 0.097,1.6072 0.77617,2.7621 2.03744,3.4648 1.26127,0.7026 2.52254,1.2844 3.78382,1.7452 1.26126,0.4609 1.94041,1.1322 2.03744,2.014 -0.0265,0.6215 -0.29093,1.0938 -0.79343,1.4168 -0.50251,0.323 -1.08435,0.4855 -1.74553,0.4874 -1.34631,-0.074 -2.40925,-0.3715 -3.18882,-0.8917 -0.77958,-0.5201 -1.17755,-0.8173 -1.19392,-0.8916 z"
             style=""
             id="path4190" />
        </g>
      </g>
      <g
         transform="matrix(0.52708486,0,0,0.52708486,182.2098,452.64166)"
         id="text2985-1-7"
         style="font-size:40px;font-style:normal;font-weight:normal;line-height:125%;letter-spacing:0px;word-spacing:0px;fill:#ffffff;fill-opacity:1;stroke:none;font-family:Sans">
        <g
           style="font-size:30.22614288px;font-variant:normal;font-stretch:normal;line-height:125%;fill:#ffffff;font-family:Museo Sans 500;-inkscape-font-specification:Museo Sans 500"
           id="text3025-6">
          <path
             d="m 86.746147,1040.1235 2.931898,0 0,-7.1635 c -0.0013,-0.3784 0.01637,-0.7399 0.0529,-1.0843 0.03652,-0.3445 0.09949,-0.6681 0.18891,-0.971 0.333737,-1.1215 0.928176,-2.022 1.78332,-2.7014 0.855129,-0.6795 1.872728,-1.0283 3.052801,-1.0466 1.192016,0.026 1.981663,0.3973 2.368943,1.1146 0.387254,0.7172 0.56483,1.6252 0.532729,2.7241 l 0,9.1281 2.931896,0 0,-9.7931 c 0.006,-1.9502 -0.42128,-3.4149 -1.280814,-4.3941 -0.859559,-0.9792 -2.185713,-1.4691 -3.978465,-1.4697 -1.656129,0.063 -2.953316,0.4811 -3.891566,1.2544 -0.938264,0.7733 -1.555372,1.5239 -1.851327,2.2518 l -0.06045,0 c 0.0025,-0.01 0.01259,-0.1196 0.03023,-0.3325 0.01763,-0.2128 0.0277,-0.4748 0.03023,-0.7859 l 0,-2.0251 -2.841221,0 z"
             style=""
             id="path4193" />
          <path
             d="m 104.77652,1034.6224 c 0.003,2.0164 0.44331,3.4999 1.32237,4.4508 0.87906,0.9508 2.18129,1.4219 3.90668,1.413 1.50372,-0.052 2.73542,-0.447 3.6951,-1.1863 0.95966,-0.7393 1.60195,-1.5126 1.92689,-2.3198 l 0.0605,0 c -0.003,0.01 -0.0126,0.1139 -0.0302,0.3211 -0.0177,0.2072 -0.0277,0.4729 -0.0302,0.7972 l 0,2.0251 2.84122,0 0,-15.2942 -2.9319,0 0,7.1635 c -0.012,1.5629 -0.44899,2.9029 -1.31104,4.02 -0.86207,1.1171 -2.0774,1.7015 -3.64598,1.7531 -1.19077,-0.026 -1.97538,-0.3967 -2.35383,-1.1108 -0.37846,-0.714 -0.551,-1.6133 -0.51762,-2.6976 l 0,-9.1282 -2.93189,0 z"
             style=""
             id="path4195" />
          <path
             d="m 123.05294,1040.1235 2.9319,0 0,-6.9821 c -0.002,-0.3495 0.009,-0.6933 0.034,-1.0315 0.0246,-0.3381 0.0737,-0.6593 0.14735,-0.9634 0.29407,-1.1196 0.81672,-2.0617 1.56796,-2.8261 0.75123,-0.7645 1.68949,-1.1624 2.81478,-1.1939 1.14227,0.035 1.88028,0.4257 2.21403,1.1712 0.33373,0.7456 0.48234,1.6347 0.44583,2.6674 l 0,9.1584 2.9319,0 0,-6.9821 c -0.005,-0.7808 0.0655,-1.4861 0.21158,-2.1158 0.28272,-1.0749 0.79782,-1.9855 1.54529,-2.7317 0.74744,-0.7462 1.66303,-1.1353 2.74677,-1.1674 1.11833,0.026 1.85886,0.3973 2.22159,1.1145 0.36269,0.7173 0.52893,1.6253 0.49873,2.7241 l 0,9.1584 2.93189,0 0,-9.7931 c 0.005,-1.9502 -0.40555,-3.4149 -1.23169,-4.3941 -0.8262,-0.9792 -2.0982,-1.4691 -3.81601,-1.4697 -1.25816,0.03 -2.36896,0.3785 -3.33239,1.0466 -0.96346,0.6681 -1.66621,1.4779 -2.10824,2.4294 l -0.0605,0 c -0.25568,-1.1499 -0.76448,-2.0163 -1.5264,-2.5995 -0.76196,-0.583 -1.78459,-0.8752 -3.06792,-0.8765 -1.21848,0.035 -2.30283,0.3961 -3.25305,1.0843 -0.95022,0.6883 -1.61897,1.4956 -2.00623,2.4219 l -0.0605,0 c 0.003,-0.01 0.0126,-0.1196 0.0302,-0.3325 0.0176,-0.2128 0.0277,-0.4748 0.0302,-0.7859 l 0,-2.0251 -2.84122,0 z"
             style=""
             id="path4197" />
          <path
             d="m 150.68153,1040.1235 2.78077,0 0,-1.1183 c -0.003,-0.3388 -0.0126,-0.6133 -0.0302,-0.8237 -0.0176,-0.2103 -0.0277,-0.3186 -0.0302,-0.3249 l 0.0605,0 c -0.004,0.033 0.1584,0.2597 0.48697,0.6818 0.32855,0.422 0.84687,0.844 1.55494,1.2661 0.70806,0.422 1.62939,0.6493 2.76398,0.6817 2.04841,-0.03 3.70957,-0.7562 4.98347,-2.18 1.27387,-1.4237 1.93002,-3.367 1.96845,-5.8298 -0.0227,-2.4098 -0.6272,-4.338 -1.81354,-5.7844 -1.18638,-1.4464 -2.81857,-2.1882 -4.89657,-2.2254 -1.19281,0.032 -2.14884,0.2567 -2.86809,0.6739 -0.71927,0.4172 -1.2387,0.8344 -1.55831,1.2516 -0.31961,0.4172 -0.47634,0.6418 -0.47018,0.6739 l -0.0605,0 c 0.003,-0.01 0.0126,-0.1291 0.0302,-0.3665 0.0176,-0.2374 0.0277,-0.5484 0.0302,-0.9332 l 0,-6.9821 -2.93189,0 z m 2.84122,-7.5866 c 0.0403,-1.9351 0.48864,-3.3393 1.34504,-4.2127 0.85639,-0.8734 1.87903,-1.3029 3.06792,-1.2884 1.29088,0.02 2.32863,0.5164 3.11325,1.4886 0.7846,0.9723 1.18761,2.2997 1.20903,3.9822 -0.0328,1.7487 -0.46599,3.095 -1.29971,4.039 -0.83374,0.9439 -1.87149,1.4212 -3.11325,1.4319 -1.44959,-0.057 -2.53267,-0.6234 -3.24927,-1.7002 -0.71661,-1.0768 -1.07428,-2.3236 -1.07301,-3.7404 z"
             style=""
             id="path4199" />
          <path
             d="m 167.56615,1035.8315 c 0.0523,1.5295 0.59003,2.6869 1.6133,3.4722 1.02326,0.7852 2.21844,1.1794 3.58553,1.1825 1.21182,-0.037 2.1768,-0.2985 2.89495,-0.7836 0.71814,-0.4851 1.23309,-0.9702 1.54488,-1.4553 0.31176,-0.4851 0.46401,-0.7463 0.45674,-0.7836 l 0.0605,0 c -0.003,0.01 -0.0126,0.1215 -0.0302,0.3438 -0.0177,0.2223 -0.0277,0.5107 -0.0302,0.8652 l 0,1.4508 2.72032,0 0,-9.6722 c -0.0101,-1.942 -0.534,-3.4231 -1.57174,-4.4432 -1.03776,-1.0201 -2.5289,-1.5339 -4.47341,-1.5415 -1.77199,0.076 -3.16238,0.3778 -4.17116,0.9068 -1.00878,0.5289 -1.52262,0.8312 -1.54151,0.9067 l 1.20903,2.1461 c 0.0302,-0.062 0.44583,-0.3086 1.24681,-0.7406 0.80098,-0.4319 1.80599,-0.6788 3.01502,-0.7405 0.98611,-0.017 1.78709,0.2286 2.40295,0.7368 0.61584,0.5081 0.93321,1.3809 0.95211,2.6183 l 0,0.272 -0.66497,0 c -0.92264,-0.029 -2.09995,0.052 -3.53193,0.2418 -1.432,0.1898 -2.72126,0.6599 -3.86778,1.4105 -1.14653,0.7507 -1.75291,1.953 -1.81914,3.607 z m 2.96212,-0.1512 c 0.0356,-0.9017 0.40767,-1.5599 1.11612,-1.9747 0.70843,-0.4148 1.53945,-0.6767 2.49306,-0.7859 0.9536,-0.1091 1.81596,-0.1561 2.5871,-0.141 l 0.75565,0 0,0.4836 c -0.0151,1.1945 -0.38539,2.289 -1.1108,3.2833 -0.72543,0.9943 -1.71532,1.522 -2.96968,1.583 -0.95275,-0.024 -1.66935,-0.2777 -2.14981,-0.7594 -0.48047,-0.4817 -0.72101,-1.0447 -0.72164,-1.6889 z"
             style=""
             id="path4201" />
          <path
             d="m 183.50572,1038.2495 c 0.008,0.093 0.50628,0.466 1.49617,1.1184 0.98989,0.6524 2.42561,1.0251 4.30717,1.1183 1.6983,-0.026 3.03957,-0.4496 4.0238,-1.2694 0.98422,-0.8199 1.48672,-1.8778 1.50751,-3.1737 -0.097,-1.6171 -0.77617,-2.7758 -2.03744,-3.476 -1.26128,-0.7002 -2.52255,-1.2745 -3.78381,-1.7229 -1.26128,-0.4483 -1.94043,-1.1032 -2.03744,-1.9646 0.0252,-0.66 0.28462,-1.1385 0.77831,-1.4358 0.49368,-0.2972 1.07049,-0.4433 1.73043,-0.4382 1.21531,0.057 2.14727,0.2833 2.79588,0.68 0.64858,0.3968 0.97603,0.6235 0.98233,0.6801 l 1.17881,-2.2065 c 0.004,-0.071 -0.39736,-0.3526 -1.20525,-0.8463 -0.80792,-0.4937 -2.04844,-0.7758 -3.72155,-0.8463 -1.56608,0.01 -2.86956,0.3854 -3.91046,1.1335 -1.0409,0.7481 -1.58118,1.8211 -1.62085,3.219 0.097,1.6072 0.77616,2.7621 2.03744,3.4648 1.26127,0.7026 2.52254,1.2844 3.78381,1.7452 1.26127,0.4609 1.94041,1.1322 2.03744,2.014 -0.0264,0.6215 -0.29093,1.0938 -0.79342,1.4168 -0.50251,0.323 -1.08436,0.4855 -1.74554,0.4874 -1.34631,-0.074 -2.40925,-0.3715 -3.18882,-0.8917 -0.77957,-0.5201 -1.17754,-0.8173 -1.19391,-0.8916 z"
             style=""
             id="path4203" />
          <path
             d="m 198.26408,1040.1235 3.08303,0 0,-3.1132 -3.08303,0 z"
             style=""
             id="path4205" />
          <path
             d="m 204.82034,1032.4462 c 0.0586,2.3715 0.86332,4.2933 2.41428,5.7656 1.55095,1.4722 3.49673,2.2304 5.83735,2.2744 2.34059,-0.044 4.28637,-0.8022 5.83735,-2.2744 1.55094,-1.4723 2.3557,-3.3941 2.41428,-5.7656 -0.0586,-2.3557 -0.86334,-4.2637 -2.41428,-5.724 -1.55098,-1.4603 -3.49676,-2.2121 -5.83735,-2.2556 -2.34062,0.043 -4.2864,0.7953 -5.83735,2.2556 -1.55096,1.4603 -2.35572,3.3683 -2.41428,5.724 z m 2.99235,0 c 0.0397,-1.6152 0.55728,-2.9187 1.55284,-3.9105 0.99556,-0.9917 2.23104,-1.5018 3.70644,-1.5301 1.48861,0.028 2.72786,0.5384 3.71777,1.5301 0.98987,0.9918 1.50371,2.2953 1.54151,3.9105 -0.0378,1.6309 -0.55163,2.9483 -1.54151,3.952 -0.98991,1.0038 -2.22916,1.5201 -3.71777,1.5491 -1.47541,-0.029 -2.71088,-0.5453 -3.70644,-1.5491 -0.99556,-1.0037 -1.51318,-2.3211 -1.55284,-3.952 z"
             style=""
             id="path4207" />
          <path
             d="m 224.77099,1040.1235 2.9319,0 0,-6.2567 c -0.002,-0.4697 0.0246,-0.9357 0.0793,-1.3979 0.0548,-0.4622 0.14923,-0.9131 0.28337,-1.3526 0.36585,-1.1417 0.93384,-2.0245 1.70397,-2.6486 0.77012,-0.624 1.63281,-0.9401 2.58808,-0.9483 0.23361,0 0.43134,0.019 0.59318,0.045 0.16183,0.027 0.24621,0.042 0.25314,0.045 l 0,-2.9017 c -0.007,-0 -0.0838,-0.013 -0.23047,-0.03 -0.14673,-0.018 -0.32179,-0.028 -0.52517,-0.03 -1.18952,0.027 -2.20334,0.4119 -3.04147,1.1562 -0.83814,0.7443 -1.43636,1.6889 -1.79465,2.8336 l -0.0605,0 c 0.003,-0.01 0.0126,-0.1202 0.0302,-0.3362 0.0176,-0.216 0.0277,-0.4868 0.0302,-0.8123 l 0,-2.6599 -2.84122,0 z"
             style=""
             id="path4209" />
          <path
             d="m 237.46596,1042.9043 -0.96723,2.2972 c 0.7506,0.3834 1.57677,0.6895 2.47851,0.9181 0.90173,0.2285 1.81858,0.3457 2.75055,0.3513 2.01378,0.025 3.78198,-0.5081 5.30462,-1.5981 1.5226,-1.0901 2.32359,-2.8847 2.40294,-5.384 l 0,-14.6595 -2.81099,0 0,1.4206 c 0.001,0.1392 0.006,0.2538 0.0151,0.3438 0.009,0.09 0.0138,0.1367 0.0151,0.1398 l -0.0605,0 c 0.0302,-0.094 -0.30982,-0.4722 -1.02012,-1.1334 -0.71031,-0.6612 -1.97224,-1.039 -3.78577,-1.1335 -2.12966,0.045 -3.77193,0.7714 -4.9268,2.18 -1.15488,1.4087 -1.73924,3.231 -1.75309,5.4671 0.0183,2.2569 0.62403,4.1132 1.81732,5.5691 1.19328,1.4559 2.86451,2.209 5.0137,2.2594 1.09756,-0.01 2.01567,-0.2141 2.75432,-0.6272 0.73863,-0.4131 1.33181,-1 1.77954,-1.7607 l 0.0605,0 c -0.001,0.01 -0.006,0.1109 -0.0151,0.3023 -0.009,0.1914 -0.0139,0.4131 -0.0151,0.665 l 0,1.1183 c -0.0353,1.5409 -0.50882,2.6454 -1.42061,3.3135 -0.91183,0.6681 -2.05033,0.9943 -3.41551,0.9786 -1.18007,-0.043 -2.16745,-0.2141 -2.96213,-0.5139 -0.79469,-0.2997 -1.20777,-0.471 -1.23925,-0.5138 z m 5.0477,-5.5011 c -1.38851,-0.024 -2.47285,-0.5195 -3.25305,-1.4848 -0.78021,-0.9654 -1.17692,-2.2537 -1.19014,-3.8651 0.008,-1.5724 0.37026,-2.8028 1.08813,-3.6914 0.71785,-0.8885 1.74553,-1.3406 3.08302,-1.3563 1.22477,-0.035 2.24363,0.3224 3.05658,1.073 0.81294,0.7506 1.23484,2.1057 1.26571,4.0653 -0.0365,1.9647 -0.4471,3.34 -1.2317,4.1259 -0.78462,0.7858 -1.72414,1.1636 -2.81855,1.1334 z"
             style=""
             id="path4211" />
          <path
             d="m 254.05257,1040.1235 3.08303,0 0,-3.1132 -3.08303,0 z"
             style=""
             id="path4213" />
          <path
             d="m 261.5156,1034.6224 c 0.003,2.0164 0.44331,3.4999 1.32238,4.4508 0.87906,0.9508 2.18128,1.4219 3.90668,1.413 1.50372,-0.052 2.73542,-0.447 3.69509,-1.1863 0.95966,-0.7393 1.60196,-1.5126 1.9269,-2.3198 l 0.0605,0 c -0.003,0.01 -0.0126,0.1139 -0.0302,0.3211 -0.0176,0.2072 -0.0277,0.4729 -0.0302,0.7972 l 0,2.0251 2.84122,0 0,-15.2942 -2.9319,0 0,7.1635 c -0.012,1.5629 -0.44899,2.9029 -1.31104,4.02 -0.86208,1.1171 -2.0774,1.7015 -3.64599,1.7531 -1.19077,-0.026 -1.97538,-0.3967 -2.35383,-1.1108 -0.37845,-0.714 -0.55099,-1.6133 -0.51761,-2.6976 l 0,-9.1282 -2.9319,0 z"
             style=""
             id="path4215" />
          <path
             d="m 279.79202,1040.1235 2.93189,0 0,-7.1937 2.20648,0 4.59432,7.1937 3.41551,0 -5.65222,-8.4934 0,-0.061 5.07793,-6.7403 -3.32483,0 -4.17116,5.622 -2.14603,0 0,-11.6671 -2.93189,0 z"
             style=""
             id="path4217" />
        </g>
      </g>
    </g>
  </g>
</svg>
